HIERARCHY
ROOT Hips
{
	OFFSET 0.000000 0.000000 0.000000
	CHANNELS 6 Xposition Yposition Zposition Zrotation Yrotation Xrotation 
	JOINT LowerBack
	{
		OFFSET 0.000000 0.000000 0.000000
		CHANNELS 3 Zrotation Yrotation Xrotation
		JOINT Spine
		{
			OFFSET 0.028270 2.035590 -0.193380
			CHANNELS 3 Zrotation Yrotation Xrotation
			JOINT Spine1
			{
				OFFSET 0.056720 2.048850 -0.042750
				CHANNELS 3 Zrotation Yrotation Xrotation
				JOINT Neck
				{
					OFFSET 0.000000 0.000000 0.000000
					CHANNELS 3 Zrotation Yrotation Xrotation
					JOINT Neck1
					{
						OFFSET -0.054170 1.746240 0.172020
						CHANNELS 3 Zrotation Yrotation Xrotation
						JOINT Head
						{
							OFFSET 0.104070 1.761360 -0.123970
							CHANNELS 3 Zrotation Yrotation Xrotation
							End Site
							{
								OFFSET 0.000000 0.000000 0.000000
							}
						}
					}
				}
				JOINT LeftShoulder
				{
					OFFSET 0.000000 0.000000 0.000000
					CHANNELS 3 Zrotation Yrotation Xrotation
					JOINT LeftArm
					{
						OFFSET 3.362410 1.200890 -0.311210
						CHANNELS 3 Zrotation Yrotation Xrotation
						JOINT LeftForeArm
						{
							OFFSET 4.983000 -0.000000 -0.000000
							CHANNELS 3 Zrotation Yrotation Xrotation
							JOINT LeftHand
							{
								OFFSET 3.483560 -0.000000 -0.000000
								CHANNELS 3 Zrotation Yrotation Xrotation
								JOINT LeftFingerBase
								{
									OFFSET 0.000000 0.000000 0.000000
									CHANNELS 3 Zrotation Yrotation Xrotation
									JOINT LeftHandIndex1
									{
										OFFSET 0.715260 -0.000000 -0.000000
										CHANNELS 3 Zrotation Yrotation Xrotation
										End Site
										{
											OFFSET 0.000000 0.000000 0.000000
										}
									}
								}
								JOINT LThumb
								{
									OFFSET 0.000000 0.000000 0.000000
									CHANNELS 3 Zrotation Yrotation Xrotation
									End Site
									{
										OFFSET 0.000000 0.000000 0.000000
									}
								}
							}
						}
					}
				}
				JOINT RightShoulder
				{
					OFFSET 0.000000 0.000000 0.000000
					CHANNELS 3 Zrotation Yrotation Xrotation
					JOINT RightArm
					{
						OFFSET -3.136600 1.374050 -0.404650
						CHANNELS 3 Zrotation Yrotation Xrotation
						JOINT RightForeArm
						{
							OFFSET -5.241900 -0.000000 -0.000000
							CHANNELS 3 Zrotation Yrotation Xrotation
							JOINT RightHand
							{
								OFFSET -3.444170 -0.000000 -0.000000
								CHANNELS 3 Zrotation Yrotation Xrotation
								JOINT RightFingerBase
								{
									OFFSET 0.000000 0.000000 0.000000
									CHANNELS 3 Zrotation Yrotation Xrotation
									JOINT RightHandIndex1
									{
										OFFSET -0.622530 -0.000000 -0.000000
										CHANNELS 3 Zrotation Yrotation Xrotation
										End Site
										{
											OFFSET 0.000000 0.000000 0.000000
										}
									}
								}
								JOINT RThumb
								{
									OFFSET 0.000000 0.000000 0.000000
									CHANNELS 3 Zrotation Yrotation Xrotation
									End Site
									{
										OFFSET 0.000000 0.000000 0.000000
									}
								}
							}
						}
					}
				}
			}
		}
	}
}
}
MOTION
Frames: 15
Frame Time: 0.008333
13.098973 15.430110 1.499047 101.545250 -85.808042 -55.279415 0.358406 -2.651556 -7.316507 -0.573932 -2.951884 -4.460161 -5.350667 -3.185200 1.577083 10.744087 -9.516246 -15.359797 -2.749040 -0.087057 -2.660945 0.000000 0.000000 0.000000 0.821380 9.632096 4.508675 -70.977559 2.665189 -24.803022 -0.703180 -15.177663 -0.038189 33.171353 -6.763144 -2.040120 -0.020449 0.073733 -0.000000 0.000000 0.000000 0.000000 0.000000 0.000000 0.000000 13.801139 -7.085546 3.861695 72.007439 6.680116 -31.651574 0.699467 13.806556 -0.037125 -21.839012 16.676049 -3.299856 0.130323 -0.209600 -0.000000 0.000000 0.000000 0.000000 0.000000 0.000000 0.000000 
13.070526 15.348716 1.506732 101.654675 -85.743015 -54.595873 0.384069 -2.683480 -7.439451 -0.566224 -2.990144 -4.477791 -5.334485 -3.225877 1.668424 10.862052 -9.776020 -15.645300 -2.701982 -0.079034 -2.754710 0.000000 0.000000 0.000000 0.684961 10.016471 4.571683 -70.567416 3.700238 -25.687554 -0.678764 -13.973928 -0.036177 33.183203 -6.403141 -1.931910 -0.020056 0.069675 -0.000000 0.000000 0.000000 0.000000 0.000000 0.000000 0.000000 13.846653 -7.364174 3.948490 71.597296 5.403212 -32.844654 0.667347 13.048678 -0.035768 -21.997688 16.531564 -3.294267 0.130702 -0.203582 -0.000000 0.000000 0.000000 0.000000 0.000000 0.000000 0.000000 
13.042569 15.264142 1.514287 101.740675 -85.671899 -53.883939 0.402275 -2.715963 -7.554834 -0.560115 -3.028151 -4.494017 -5.318084 -3.266261 1.753406 10.982842 -10.040036 -15.927615 -2.652609 -0.070660 -2.848467 0.000000 0.000000 0.000000 0.552347 10.402492 4.632572 -70.120344 4.717570 -26.574468 -0.651407 -12.817406 -0.034350 33.217402 -6.070292 -1.833399 -0.020380 0.066095 -0.000000 0.000000 0.000000 0.000000 0.000000 0.000000 0.000000 13.892246 -7.647163 4.031169 71.175629 4.130850 -33.982651 0.631559 12.378825 -0.034529 -22.175921 16.398471 -3.293577 0.131199 -0.197993 -0.000000 0.000000 0.000000 0.000000 0.000000 0.000000 0.000000 
13.015289 15.176589 1.521703 101.808556 -85.596305 -53.156679 0.413832 -2.747960 -7.657129 -0.555749 -3.064790 -4.507577 -5.301956 -3.305207 1.831855 11.107624 -10.311604 -16.206496 -2.601087 -0.061939 -2.942183 0.000000 0.000000 0.000000 0.421556 10.787570 4.690253 -69.636954 5.709525 -27.454843 -0.621493 -11.702572 -0.032673 33.265489 -5.775652 -1.746888 -0.021384 0.062930 -0.000000 0.000000 0.000000 0.000000 0.000000 0.000000 0.000000 13.941477 -7.938312 4.109980 70.742054 2.872589 -35.051176 0.592933 11.789557 -0.033391 -22.376196 16.278020 -3.298387 0.131832 -0.192784 -0.000000 0.000000 0.000000 0.000000 0.000000 0.000000 0.000000 
12.988957 15.085970 1.528974 101.835562 -85.512562 -52.392893 0.419503 -2.781038 -7.746960 -0.553070 -3.101671 -4.523316 -5.286093 -3.344636 1.886619 11.218188 -10.538919 -16.459124 -2.551545 -0.053647 -3.029037 0.000000 0.000000 0.000000 0.290261 11.101404 4.751474 -69.138332 6.762927 -28.328332 -0.589356 -10.692900 -0.031172 33.329407 -5.469737 -1.657878 -0.023041 0.060156 -0.000000 0.000000 0.000000 0.000000 0.000000 0.000000 0.000000 13.972606 -8.180765 4.191230 70.325592 1.576901 -36.129595 0.549570 11.286756 -0.032358 -22.564307 16.197052 -3.309195 0.132300 -0.188199 -0.000000 0.000000 0.000000 0.000000 0.000000 0.000000 0.000000 
12.963294 14.992718 1.536160 101.869453 -85.428441 -51.647029 0.420693 -2.812318 -7.814584 -0.551639 -3.135754 -4.532375 -5.269252 -3.381062 1.941915 11.335419 -10.787553 -16.714639 -2.498181 -0.044715 -3.117885 0.000000 0.000000 0.000000 0.158668 11.445336 4.806512 -68.604103 7.734658 -29.179537 -0.554493 -9.683986 -0.029788 33.391734 -5.234076 -1.589669 -0.025354 0.057751 -0.000000 0.000000 0.000000 0.000000 0.000000 0.000000 0.000000 14.010408 -8.447973 4.266421 69.895488 0.332499 -37.111140 0.504500 10.832110 -0.031394 -22.784465 16.130028 -3.327504 0.133003 -0.183902 -0.000000 0.000000 0.000000 0.000000 0.000000 0.000000 0.000000 
12.938652 14.896895 1.543265 101.894813 -85.341395 -50.908138 0.418512 -2.843399 -7.860805 -0.551324 -3.168700 -4.539915 -5.251661 -3.416464 1.979707 11.440437 -11.003074 -16.948666 -2.445635 -0.036012 -3.201333 0.000000 0.000000 0.000000 0.024369 11.742879 4.862399 -68.060139 8.722449 -30.010668 -0.517598 -8.750097 -0.028541 33.452012 -5.011491 -1.525062 -0.028299 0.055682 0.000000 0.000000 0.000000 0.000000 0.000000 0.000000 0.000000 14.032769 -8.679927 4.342612 69.481239 -0.913588 -38.090211 0.455182 10.427538 -0.030519 -23.000100 16.101774 -3.353012 0.133602 -0.180148 -0.000000 0.000000 0.000000 0.000000 0.000000 0.000000 0.000000 
12.914928 14.798801 1.550323 101.927261 -85.254331 -50.195605 0.414321 -2.873877 -7.883241 -0.551849 -3.200129 -4.545345 -5.233118 -3.450453 2.000363 11.531934 -11.183294 -17.159817 -2.394256 -0.027609 -3.278908 0.000000 0.000000 0.000000 -0.114006 11.992822 4.918878 -67.514805 9.725530 -30.815253 -0.479179 -7.893487 -0.027410 33.502249 -4.800322 -1.463355 -0.031872 0.053910 0.000000 0.000000 0.000000 0.000000 0.000000 0.000000 0.000000 14.038992 -8.874609 4.420356 69.084910 -2.152789 -39.080253 0.401158 10.056249 -0.029743 -23.208540 16.111485 -3.385519 0.134073 -0.176941 -0.000000 0.000000 0.000000 0.000000 0.000000 0.000000 0.000000 
12.891797 14.698795 1.557407 102.012198 -85.176135 -49.557806 0.411250 -2.901005 -7.876153 -0.552295 -3.227308 -4.542380 -5.212141 -3.479960 2.021945 11.624101 -11.372247 -17.368729 -2.339695 -0.018716 -3.356902 0.000000 0.000000 0.000000 -0.251897 12.273939 4.969548 -66.953098 10.632219 -31.593509 -0.437445 -7.032309 -0.026355 33.533172 -4.668174 -1.424650 -0.036032 0.052439 0.000000 0.000000 0.000000 0.000000 0.000000 0.000000 0.000000 14.045011 -9.080972 4.493189 68.683996 -3.325655 -39.998767 0.344391 9.700158 -0.029070 -23.444476 16.122043 -3.422327 0.134732 -0.174009 -0.000000 0.000000 0.000000 0.000000 0.000000 0.000000 0.000000 
12.869469 14.597112 1.564514 102.138526 -85.104519 -48.988069 0.409396 -2.926536 -7.843218 -0.552772 -3.252094 -4.536412 -5.189679 -3.507130 2.028239 11.700785 -11.522448 -17.552733 -2.286898 -0.010245 -3.428200 0.000000 0.000000 0.000000 -0.392698 12.510307 5.020432 -66.405460 11.546341 -32.339732 -0.394616 -6.248574 -0.025376 33.543320 -4.549306 -1.388946 -0.040758 0.051197 0.000000 0.000000 0.000000 0.000000 0.000000 0.000000 0.000000 14.034085 -9.246516 4.567833 68.303463 -4.477711 -40.946032 0.282428 9.356659 -0.028527 -23.668236 16.154088 -3.462136 0.135241 -0.171592 -0.000000 0.000000 0.000000 0.000000 0.000000 0.000000 0.000000 
12.847613 14.494018 1.571700 102.328306 -85.044543 -48.508260 0.410496 -2.949309 -7.784296 -0.552820 -3.273431 -4.525609 -5.165404 -3.530786 2.025908 11.766365 -11.648101 -17.718005 -2.234911 -0.002014 -3.494570 0.000000 0.000000 0.000000 -0.534087 12.727365 5.069432 -65.872533 12.432164 -33.051101 -0.350276 -5.517897 -0.024447 33.530856 -4.462453 -1.362043 -0.045982 0.050155 0.000000 0.000000 0.000000 0.000000 0.000000 0.000000 0.000000 14.012875 -9.386950 4.642058 67.935235 -5.586815 -41.897984 0.215978 9.018137 -0.028126 -23.888511 16.186918 -3.501845 0.135712 -0.169588 -0.000000 0.000000 0.000000 0.000000 0.000000 0.000000 0.000000 
12.826140 14.389800 1.578955 102.588256 -84.997425 -48.126081 0.415283 -2.969520 -7.702824 -0.552299 -3.291669 -4.511740 -5.139908 -3.551339 2.011737 11.816845 -11.738801 -17.858337 -2.185433 0.005662 -3.553857 0.000000 0.000000 0.000000 -0.677347 12.903499 5.117750 -65.369308 13.321117 -33.716133 -0.305903 -4.868533 -0.023552 33.497049 -4.379976 -1.335641 -0.051646 0.049241 0.000000 0.000000 0.000000 0.000000 0.000000 0.000000 0.000000 13.979013 -9.490762 4.717397 67.583970 -6.658815 -42.887757 0.144595 8.677549 -0.027873 -24.089197 16.223865 -3.539754 0.136051 -0.168055 -0.000000 0.000000 0.000000 0.000000 0.000000 0.000000 0.000000 
12.804695 14.284734 1.586337 102.940265 -84.968272 -47.862582 0.424258 -2.985603 -7.598007 -0.550938 -3.305231 -4.490222 -5.112474 -3.566908 2.001391 11.865311 -11.830343 -17.991535 -2.135544 0.013386 -3.611448 0.000000 0.000000 0.000000 -0.813042 13.109387 5.160759 -64.877402 14.109804 -34.353917 -0.258584 -4.217971 -0.022656 33.442656 -4.375946 -1.332040 -0.057578 0.048506 0.000000 0.000000 0.000000 0.000000 0.000000 0.000000 0.000000 13.949569 -9.597106 4.787097 67.230000 -7.654850 -43.817579 0.071427 8.347985 -0.027771 -24.303463 16.214544 -3.569666 0.136598 -0.166684 -0.000000 0.000000 0.000000 0.000000 0.000000 0.000000 0.000000 
12.783211 14.178984 1.593755 103.373284 -84.953981 -47.705155 0.436893 -2.999008 -7.477696 -0.549043 -3.315805 -4.466499 -5.084798 -3.579437 1.982369 11.900038 -11.891350 -18.100463 -2.089341 0.020391 -3.661743 0.000000 0.000000 0.000000 -0.947725 13.277155 5.202687 -64.424944 14.895900 -34.938723 -0.211819 -3.648254 -0.021775 33.375554 -4.369061 -1.327239 -0.063718 0.047828 0.000000 0.000000 0.000000 0.000000 0.000000 0.000000 0.000000 13.913983 -9.671384 4.856367 66.889501 -8.604624 -44.775657 -0.005228 8.019090 -0.027806 -24.493303 16.195710 -3.593876 0.137054 -0.165706 -0.000000 0.000000 0.000000 0.000000 0.000000 0.000000 0.000000 
12.761440 14.072748 1.601219 103.891545 -84.955279 -47.655758 0.452615 -3.009572 -7.344927 -0.546751 -3.323305 -4.439652 -5.057292 -3.588733 1.960627 11.926410 -11.935895 -18.191715 -2.046273 0.026830 -3.706599 0.000000 0.000000 0.000000 -1.078241 13.429994 5.241938 -64.006840 15.645224 -35.474953 -0.164869 -3.133282 -0.020895 33.301396 -4.378532 -1.326939 -0.069912 0.047200 0.000000 0.000000 0.000000 0.000000 0.000000 0.000000 0.000000 13.880609 -9.728897 4.922341 66.554311 -9.494311 -45.721635 -0.083531 7.698561 -0.027957 -24.669698 16.153203 -3.610887 0.137542 -0.164986 -0.000000 0.000000 0.000000 0.000000 0.000000 0.000000 0.000000 
